<svg xmlns="http://www.w3.org/2000/svg" id="canvas" viewBox="219.777 297.988 833.114 156.738"><path d="M 235.04,356.62 C 234.11 357.96, 233.84 359.61, 233.93 363.09 C 234.01 366.58, 234.72 368.99, 235.48 374.04 C 236.23 379.09, 236.78 382.50, 237.70 388.34 C 238.63 394.17, 239.23 397.43, 240.10 403.22 C 240.97 409.01, 241.42 411.99, 242.05 417.28 C 242.68 422.58, 242.98 425.22, 243.23 429.70 C 243.49 434.18, 243.35 436.32, 243.32 439.67 C 243.30 443.02, 242.82 444.59, 243.11 446.44 C 243.39 448.30, 244.16 448.87, 244.74 448.96 C 245.32 449.05, 246.20 448.43, 245.98 446.88 C 245.77 445.32, 245.12 444.27, 243.66 441.19 C 242.21 438.11, 240.69 436.00, 238.72 431.46 C 236.75 426.92, 235.57 423.98, 233.81 418.49 C 232.05 413.00, 231.14 409.84, 229.91 404.00 C 228.68 398.15, 228.20 395.02, 227.68 389.27 C 227.16 383.52, 227.04 380.57, 227.30 375.24 C 227.56 369.91, 227.89 367.22, 229.00 362.61 C 230.10 358.00, 230.93 355.79, 232.82 352.18 C 234.70 348.57, 235.93 347.01, 238.43 344.55 C 240.93 342.09, 242.38 341.16, 245.32 339.90 C 248.25 338.64, 249.90 338.34, 253.10 338.25 C 256.29 338.16, 258.15 338.48, 261.29 339.44 C 264.42 340.39, 266.19 341.25, 268.76 343.03 C 271.33 344.81, 272.53 346.12, 274.15 348.33 C 275.76 350.54, 276.31 351.85, 276.83 354.08 C 277.35 356.30, 277.30 357.29, 276.75 359.46 C 276.19 361.62, 275.72 362.74, 274.07 364.89 C 272.42 367.04, 271.21 368.24, 268.49 370.22 C 265.77 372.19, 263.88 373.25, 260.45 374.75 C 257.03 376.25, 254.86 376.94, 251.35 377.72 C 247.85 378.49, 245.81 378.49, 242.93 378.63 C 240.06 378.78, 238.72 378.57, 236.97 378.43 C 235.21 378.30, 234.86 378.06, 234.16 377.96 C 233.46 377.86, 233.52 377.76, 233.49 377.93 C 233.45 378.11, 233.85 378.45, 234.00 378.85 C 234.15 379.26, 234.15 379.68, 234.22 379.96 C 234.28 380.23, 234.07 380.55, 234.32 380.23 C 234.56 379.91, 235.16 379.56, 235.43 378.35 C 235.71 377.14, 235.91 375.43, 235.68 374.20 C 235.45 372.96, 235.06 372.48, 234.30 372.16 C 233.55 371.84, 232.86 372.00, 231.90 372.60 C 230.95 373.19, 230.09 373.89, 229.53 375.15 C 228.97 376.41, 228.84 377.42, 229.09 378.89 C 229.34 380.36, 229.51 381.14, 230.78 382.51 C 232.05 383.87, 232.92 384.95, 235.45 385.70 C 237.98 386.46, 239.91 386.56, 243.42 386.30 C 246.93 386.04, 249.06 385.47, 253.00 384.40 C 256.95 383.34, 259.24 382.66, 263.15 380.98 C 267.06 379.30, 269.20 378.31, 272.56 376.02 C 275.92 373.72, 277.63 372.44, 279.96 369.50 C 282.29 366.56, 283.36 364.77, 284.21 361.33 C 285.06 357.89, 285.06 355.78, 284.21 352.30 C 283.36 348.83, 282.28 346.96, 279.97 343.95 C 277.65 340.93, 276.00 339.43, 272.63 337.24 C 269.27 335.05, 267.13 334.07, 263.16 332.97 C 259.19 331.87, 256.87 331.49, 252.78 331.75 C 248.70 332.01, 246.45 332.50, 242.75 334.26 C 239.05 336.01, 237.23 337.41, 234.30 340.53 C 231.38 343.65, 230.11 345.64, 228.11 349.85 C 226.11 354.05, 225.37 356.53, 224.32 361.57 C 223.27 366.61, 223.04 369.44, 222.85 375.06 C 222.66 380.68, 222.84 383.70, 223.39 389.66 C 223.93 395.62, 224.43 398.82, 225.56 404.86 C 226.70 410.90, 227.59 414.11, 229.04 419.86 C 230.50 425.60, 231.42 428.61, 232.86 433.57 C 234.30 438.53, 234.65 441.21, 236.26 444.66 C 237.87 448.11, 238.92 449.54, 240.92 450.83 C 242.92 452.12, 244.54 451.84, 246.27 451.10 C 248.01 450.35, 248.88 449.43, 249.59 447.11 C 250.31 444.79, 250.07 443.06, 249.84 439.47 C 249.61 435.89, 249.07 433.75, 248.44 429.19 C 247.81 424.63, 247.43 422.01, 246.67 416.68 C 245.92 411.36, 245.45 408.38, 244.66 402.57 C 243.87 396.76, 243.41 393.49, 242.74 387.65 C 242.06 381.80, 241.74 378.37, 241.27 373.34 C 240.81 368.31, 240.96 365.88, 240.42 362.50 C 239.88 359.11, 239.66 357.59, 238.58 356.41 C 237.50 355.24, 235.97 355.28, 235.04 356.62" style="stroke: black; fill: black;"/><path d="M 331.09,348.43 C 331.21 347.05, 330.76 345.97, 329.47 344.63 C 328.18 343.29, 327.08 342.46, 324.65 341.73 C 322.23 340.99, 320.40 340.61, 317.35 340.96 C 314.30 341.32, 312.47 341.90, 309.42 343.49 C 306.38 345.09, 304.81 346.44, 302.13 348.94 C 299.44 351.45, 297.87 352.98, 296.00 356.02 C 294.13 359.07, 293.23 360.99, 292.78 364.18 C 292.34 367.38, 292.66 369.25, 293.79 371.98 C 294.91 374.71, 296.05 376.05, 298.40 377.81 C 300.75 379.58, 302.47 380.22, 305.54 380.78 C 308.60 381.35, 310.49 381.25, 313.73 380.62 C 316.98 379.99, 318.70 379.19, 321.75 377.65 C 324.79 376.11, 326.36 375.09, 328.97 372.91 C 331.58 370.74, 332.93 369.34, 334.80 366.76 C 336.67 364.18, 337.65 362.47, 338.32 360.01 C 338.98 357.55, 338.79 355.84, 338.13 354.47 C 337.46 353.09, 336.07 352.74, 335.00 353.15 C 333.92 353.56, 333.04 354.62, 332.73 356.52 C 332.42 358.41, 332.38 360.07, 333.46 362.63 C 334.53 365.18, 335.88 366.91, 338.09 369.30 C 340.30 371.68, 341.83 372.84, 344.50 374.55 C 347.18 376.27, 348.64 376.92, 351.47 377.88 C 354.29 378.84, 355.79 379.21, 358.63 379.36 C 361.47 379.51, 362.95 379.33, 365.66 378.62 C 368.37 377.90, 370.20 377.60, 372.16 375.77 C 374.13 373.94, 375.50 371.38, 375.49 369.48 C 375.48 367.58, 373.80 366.41, 372.11 366.27 C 370.42 366.14, 368.76 367.93, 367.04 368.82 C 365.33 369.70, 365.10 370.27, 363.53 370.70 C 361.95 371.14, 361.00 371.16, 359.18 370.99 C 357.37 370.83, 356.27 370.66, 354.43 369.89 C 352.60 369.12, 351.60 368.62, 350.01 367.16 C 348.42 365.70, 347.75 364.56, 346.49 362.60 C 345.24 360.64, 344.92 359.17, 343.74 357.35 C 342.57 355.53, 342.10 354.62, 340.62 353.48 C 339.14 352.34, 338.00 351.73, 336.35 351.63 C 334.70 351.53, 333.65 351.97, 332.37 352.98 C 331.09 353.99, 330.96 354.97, 329.96 356.67 C 328.96 358.38, 328.70 359.59, 327.38 361.51 C 326.06 363.43, 325.25 364.65, 323.36 366.28 C 321.47 367.91, 320.21 368.65, 317.92 369.66 C 315.64 370.66, 314.20 370.87, 311.92 371.32 C 309.64 371.77, 308.41 371.89, 306.52 371.90 C 304.62 371.91, 303.66 371.87, 302.44 371.39 C 301.21 370.90, 300.71 370.59, 300.38 369.48 C 300.05 368.37, 300.20 367.59, 300.78 365.84 C 301.36 364.09, 301.86 362.80, 303.30 360.72 C 304.73 358.63, 305.86 357.18, 307.94 355.42 C 310.01 353.67, 311.58 352.91, 313.67 351.93 C 315.76 350.94, 316.67 350.65, 318.39 350.49 C 320.10 350.32, 320.80 350.84, 322.24 351.10 C 323.67 351.36, 324.23 351.71, 325.56 351.79 C 326.88 351.88, 327.75 352.20, 328.85 351.53 C 329.96 350.86, 330.96 349.81, 331.09 348.43" style="stroke: black; fill: black;"/><path d="M 375.17,301.93 C 374.25 302.90, 373.74 303.76, 373.78 306.11 C 373.82 308.47, 374.37 310.09, 375.36 313.70 C 376.36 317.31, 377.40 319.72, 378.76 324.16 C 380.13 328.60, 380.89 331.32, 382.18 335.91 C 383.47 340.50, 384.09 342.91, 385.20 347.11 C 386.30 351.32, 386.77 353.34, 387.70 356.93 C 388.62 360.53, 388.78 362.25, 389.81 365.10 C 390.84 367.95, 391.43 369.20, 392.86 371.19 C 394.29 373.18, 395.09 374.02, 396.96 375.05 C 398.83 376.07, 400.02 376.38, 402.20 376.32 C 404.39 376.27, 405.66 375.97, 407.87 374.78 C 410.09 373.59, 411.14 372.62, 413.28 370.36 C 415.42 368.11, 416.25 366.31, 418.57 363.52 C 420.89 360.72, 422.37 359.02, 424.87 356.37 C 427.37 353.73, 428.92 352.45, 431.08 350.28 C 433.23 348.11, 434.32 347.17, 435.65 345.52 C 436.97 343.87, 437.17 343.16, 437.70 342.03 C 438.24 340.90, 438.43 340.63, 438.34 339.87 C 438.25 339.11, 437.98 338.58, 437.26 338.23 C 436.55 337.88, 436.10 337.82, 434.74 338.14 C 433.38 338.45, 432.35 338.53, 430.46 339.80 C 428.56 341.07, 427.50 342.25, 425.26 344.50 C 423.02 346.75, 421.82 348.37, 419.26 351.04 C 416.71 353.71, 415.09 355.36, 412.49 357.86 C 409.88 360.36, 408.23 361.52, 406.24 363.52 C 404.24 365.53, 403.55 366.55, 402.51 367.90 C 401.46 369.25, 401.45 369.82, 401.02 370.28 C 400.59 370.74, 400.74 370.75, 400.35 370.20 C 399.97 369.65, 399.77 369.10, 399.10 367.52 C 398.42 365.94, 398.04 364.79, 396.99 362.30 C 395.93 359.80, 395.06 358.38, 393.84 355.03 C 392.61 351.69, 392.03 349.69, 390.84 345.56 C 389.65 341.44, 389.01 339.03, 387.90 334.41 C 386.78 329.80, 386.20 327.02, 385.26 322.49 C 384.32 317.96, 383.99 315.38, 383.20 311.77 C 382.42 308.15, 382.29 306.52, 381.33 304.41 C 380.36 302.31, 379.61 301.74, 378.38 301.25 C 377.15 300.75, 376.09 300.96, 375.17 301.93" style="stroke: black; fill: black;"/><path d="M 412.20,363.26 C 412.00 364.66, 412.39 365.66, 413.60 367.55 C 414.80 369.44, 415.74 370.79, 418.21 372.71 C 420.69 374.62, 422.69 375.50, 425.98 377.14 C 429.28 378.78, 431.15 379.62, 434.69 380.91 C 438.23 382.20, 440.12 382.74, 443.67 383.58 C 447.22 384.41, 449.01 384.74, 452.45 385.10 C 455.89 385.45, 457.62 385.53, 460.86 385.37 C 464.10 385.21, 465.71 385.08, 468.67 384.30 C 471.63 383.53, 473.14 382.92, 475.66 381.49 C 478.18 380.05, 479.37 379.09, 481.29 377.13 C 483.22 375.17, 484.02 374.01, 485.28 371.70 C 486.54 369.38, 487.10 368.00, 487.59 365.55 C 488.07 363.11, 488.11 361.70, 487.72 359.47 C 487.32 357.25, 486.88 356.05, 485.59 354.43 C 484.31 352.81, 483.28 351.95, 481.29 351.37 C 479.31 350.79, 477.75 350.72, 475.67 351.53 C 473.60 352.34, 472.30 353.30, 470.93 355.41 C 469.55 357.51, 468.97 359.21, 468.81 362.06 C 468.65 364.91, 468.99 366.77, 470.13 369.68 C 471.26 372.58, 472.19 374.20, 474.50 376.58 C 476.80 378.96, 478.50 380.07, 481.65 381.59 C 484.79 383.10, 486.73 383.50, 490.24 384.15 C 493.74 384.81, 495.69 384.91, 499.16 384.86 C 502.63 384.82, 504.52 384.78, 507.60 383.93 C 510.68 383.07, 512.24 382.30, 514.55 380.58 C 516.86 378.87, 517.92 377.76, 519.15 375.35 C 520.37 372.95, 520.83 371.36, 520.67 368.56 C 520.51 365.76, 520.03 363.98, 518.35 361.37 C 516.67 358.75, 515.19 357.34, 512.27 355.48 C 509.34 353.61, 507.29 353.02, 503.72 352.04 C 500.16 351.07, 498.02 350.81, 494.43 350.60 C 490.84 350.38, 488.73 350.32, 485.79 350.98 C 482.85 351.64, 481.50 352.66, 479.73 353.90 C 477.96 355.15, 477.57 355.88, 476.95 357.21 C 476.32 358.54, 476.37 359.57, 476.60 360.55 C 476.84 361.53, 477.44 362.21, 478.13 362.10 C 478.82 361.99, 479.72 360.45, 480.05 360.01 C 480.38 359.58, 479.72 359.76, 479.80 359.92 C 479.88 360.08, 479.83 360.67, 480.43 360.81 C 481.04 360.94, 481.43 360.82, 482.83 360.60 C 484.23 360.38, 485.19 360.02, 487.42 359.71 C 489.66 359.41, 491.23 358.98, 494.01 359.08 C 496.79 359.19, 498.68 359.40, 501.33 360.24 C 503.98 361.08, 505.27 362.02, 507.25 363.30 C 509.24 364.58, 510.05 365.39, 511.23 366.64 C 512.41 367.88, 512.83 368.46, 513.17 369.52 C 513.50 370.59, 513.47 371.08, 512.91 371.97 C 512.35 372.86, 511.85 373.27, 510.36 373.96 C 508.86 374.65, 507.72 374.93, 505.44 375.43 C 503.17 375.94, 501.69 376.39, 498.97 376.49 C 496.25 376.58, 494.53 376.47, 491.85 375.91 C 489.18 375.35, 487.73 374.82, 485.58 373.69 C 483.43 372.57, 482.44 371.74, 481.10 370.29 C 479.76 368.85, 479.36 368.00, 478.87 366.47 C 478.38 364.94, 478.57 364.00, 478.66 362.64 C 478.75 361.29, 479.12 360.64, 479.31 359.70 C 479.50 358.75, 479.57 358.40, 479.60 357.91 C 479.62 357.43, 479.51 357.26, 479.45 357.28 C 479.39 357.30, 479.31 357.40, 479.29 358.01 C 479.27 358.62, 479.40 359.18, 479.35 360.33 C 479.30 361.49, 479.36 362.30, 479.03 363.79 C 478.71 365.28, 478.45 366.25, 477.72 367.78 C 476.99 369.31, 476.60 370.14, 475.38 371.43 C 474.17 372.72, 473.42 373.30, 471.64 374.25 C 469.87 375.21, 468.77 375.57, 466.50 376.20 C 464.23 376.82, 462.96 377.10, 460.28 377.37 C 457.59 377.65, 456.07 377.76, 453.09 377.57 C 450.10 377.38, 448.47 377.18, 445.35 376.44 C 442.23 375.71, 440.52 375.22, 437.49 373.89 C 434.47 372.56, 432.90 371.59, 430.23 369.78 C 427.56 367.98, 426.40 366.53, 424.15 364.87 C 421.90 363.20, 420.88 362.32, 418.97 361.46 C 417.06 360.61, 415.96 360.22, 414.61 360.58 C 413.26 360.94, 412.41 361.87, 412.20 363.26" style="stroke: black; fill: black;"/><path d="M 624.46,362.41 C 623.52 363.25, 623.04 363.94, 622.92 366.04 C 622.80 368.14, 623.02 369.53, 623.85 372.90 C 624.68 376.27, 625.74 378.52, 627.06 382.91 C 628.39 387.29, 629.23 390.03, 630.48 394.82 C 631.73 399.61, 632.37 402.31, 633.33 406.87 C 634.29 411.43, 634.78 413.75, 635.28 417.63 C 635.78 421.52, 635.23 423.57, 635.84 426.30 C 636.45 429.03, 637.22 430.31, 638.33 431.26 C 639.44 432.22, 640.54 432.05, 641.39 431.08 C 642.24 430.11, 643.08 428.91, 642.58 426.40 C 642.09 423.90, 640.61 422.34, 638.92 418.55 C 637.23 414.77, 635.90 412.11, 634.15 407.49 C 632.40 402.87, 631.45 400.21, 630.17 395.46 C 628.90 390.71, 628.32 388.20, 627.78 383.73 C 627.23 379.26, 627.14 377.01, 627.44 373.12 C 627.73 369.22, 628.14 367.40, 629.26 364.26 C 630.38 361.13, 631.21 359.72, 633.04 357.44 C 634.86 355.15, 635.95 354.21, 638.39 352.83 C 640.82 351.45, 642.30 350.95, 645.20 350.52 C 648.11 350.09, 649.86 350.15, 652.91 350.69 C 655.95 351.24, 657.74 351.87, 660.43 353.24 C 663.13 354.60, 664.50 355.75, 666.38 357.52 C 668.25 359.30, 668.92 360.38, 669.80 362.11 C 670.67 363.84, 670.94 364.62, 670.75 366.17 C 670.57 367.71, 670.11 368.32, 668.88 369.82 C 667.64 371.33, 666.79 372.16, 664.59 373.69 C 662.39 375.22, 660.85 376.20, 657.88 377.47 C 654.91 378.75, 652.96 379.36, 649.74 380.07 C 646.52 380.79, 644.57 380.80, 641.77 381.05 C 638.97 381.30, 637.53 381.12, 635.73 381.31 C 633.92 381.50, 633.25 381.70, 632.73 382.01 C 632.22 382.31, 632.66 382.58, 633.16 382.82 C 633.67 383.05, 634.63 383.61, 635.25 383.16 C 635.88 382.71, 636.59 381.90, 636.28 380.56 C 635.97 379.21, 634.96 377.19, 633.69 376.45 C 632.43 375.70, 631.03 375.87, 629.96 376.84 C 628.89 377.80, 628.34 379.42, 628.33 381.28 C 628.32 383.15, 628.57 384.59, 629.89 386.15 C 631.21 387.71, 632.41 388.44, 634.94 389.08 C 637.46 389.71, 639.21 389.62, 642.52 389.31 C 645.84 389.01, 647.85 388.46, 651.51 387.54 C 655.18 386.62, 657.28 386.11, 660.85 384.71 C 664.42 383.31, 666.42 382.57, 669.35 380.53 C 672.28 378.49, 673.77 377.24, 675.52 374.51 C 677.27 371.78, 677.83 370.02, 678.11 366.90 C 678.38 363.77, 678.19 361.89, 676.91 358.88 C 675.63 355.86, 674.36 354.27, 671.70 351.82 C 669.05 349.37, 667.16 348.25, 663.64 346.61 C 660.12 344.97, 658.00 344.24, 654.09 343.62 C 650.18 343.00, 647.94 342.86, 644.09 343.50 C 640.24 344.14, 638.11 344.84, 634.84 346.83 C 631.57 348.81, 630.04 350.31, 627.76 353.41 C 625.48 356.52, 624.62 358.47, 623.43 362.34 C 622.24 366.22, 621.99 368.38, 621.81 372.79 C 621.62 377.20, 621.88 379.60, 622.50 384.40 C 623.12 389.20, 623.77 391.78, 624.92 396.77 C 626.08 401.77, 626.99 404.48, 628.30 409.37 C 629.60 414.27, 630.28 417.15, 631.46 421.26 C 632.63 425.37, 632.64 427.61, 634.17 429.93 C 635.69 432.24, 637.34 432.63, 639.09 432.84 C 640.84 433.04, 641.98 432.51, 642.91 430.94 C 643.85 429.38, 644.07 427.90, 643.75 425.00 C 643.44 422.11, 642.34 420.33, 641.35 416.47 C 640.37 412.60, 639.87 410.27, 638.83 405.67 C 637.79 401.07, 637.18 398.35, 636.16 393.48 C 635.13 388.61, 634.50 385.82, 633.72 381.32 C 632.93 376.83, 632.92 374.36, 632.23 371.01 C 631.54 367.65, 631.18 366.38, 630.26 364.55 C 629.34 362.72, 628.79 362.29, 627.62 361.86 C 626.46 361.43, 625.40 361.57, 624.46 362.41" style="stroke: black; fill: black;"/><path d="M 718.15,357.35 C 718.22 356.05, 717.84 355.14, 716.58 353.99 C 715.32 352.83, 714.22 352.08, 711.87 351.57 C 709.52 351.06, 707.75 350.90, 704.83 351.43 C 701.92 351.97, 700.14 352.67, 697.30 354.25 C 694.46 355.84, 692.83 356.96, 690.61 359.35 C 688.40 361.75, 687.24 363.32, 686.23 366.22 C 685.21 369.13, 684.98 371.00, 685.52 373.89 C 686.06 376.78, 686.87 378.41, 688.93 380.69 C 690.98 382.96, 692.62 384.09, 695.79 385.28 C 698.97 386.46, 701.10 386.45, 704.81 386.62 C 708.51 386.79, 710.62 386.63, 714.31 386.13 C 718.01 385.64, 720.01 385.27, 723.29 384.14 C 726.56 383.01, 728.27 382.31, 730.71 380.49 C 733.15 378.67, 734.19 377.46, 735.49 375.02 C 736.78 372.59, 737.17 370.98, 737.18 368.31 C 737.19 365.64, 736.70 364.07, 735.52 361.69 C 734.35 359.30, 733.27 358.09, 731.31 356.37 C 729.34 354.66, 727.87 353.89, 725.70 353.10 C 723.53 352.31, 722.20 352.33, 720.44 352.42 C 718.69 352.52, 718.00 352.84, 716.92 353.58 C 715.84 354.32, 715.47 354.94, 715.05 356.12 C 714.62 357.31, 714.52 358.70, 714.78 359.52 C 715.03 360.33, 715.54 360.92, 716.34 360.20 C 717.14 359.49, 718.33 356.86, 718.77 355.94 C 719.21 355.01, 718.73 355.22, 718.52 355.59 C 718.30 355.95, 717.84 357.02, 717.69 357.75 C 717.54 358.49, 717.46 358.73, 717.78 359.26 C 718.10 359.78, 718.42 359.92, 719.28 360.39 C 720.15 360.87, 720.87 360.99, 722.09 361.64 C 723.31 362.28, 724.16 362.73, 725.38 363.62 C 726.60 364.51, 727.31 365.06, 728.18 366.08 C 729.05 367.11, 729.50 367.66, 729.72 368.74 C 729.94 369.81, 730.00 370.44, 729.30 371.46 C 728.60 372.47, 727.96 372.85, 726.23 373.83 C 724.49 374.82, 723.22 375.51, 720.64 376.39 C 718.05 377.26, 716.34 377.84, 713.30 378.21 C 710.26 378.57, 708.35 378.53, 705.44 378.20 C 702.53 377.88, 700.98 377.24, 698.75 376.59 C 696.51 375.93, 695.50 375.70, 694.27 374.93 C 693.05 374.16, 692.72 373.78, 692.62 372.74 C 692.53 371.70, 692.87 371.02, 693.80 369.73 C 694.72 368.44, 695.59 367.60, 697.25 366.28 C 698.90 364.97, 700.18 364.13, 702.09 363.15 C 704.00 362.18, 705.09 361.78, 706.79 361.42 C 708.48 361.05, 709.23 361.34, 710.58 361.32 C 711.93 361.30, 712.40 361.47, 713.53 361.31 C 714.67 361.15, 715.34 361.31, 716.27 360.52 C 717.19 359.73, 718.09 358.66, 718.15 357.35" style="stroke: black; fill: black;"/><path d="M 756.88,361.42 C 755.77 362.11, 755.44 362.87, 754.91 364.53 C 754.38 366.18, 754.12 367.41, 754.21 369.68 C 754.31 371.96, 754.71 373.60, 755.40 375.91 C 756.09 378.23, 756.56 379.57, 757.65 381.27 C 758.74 382.97, 759.44 383.82, 760.84 384.43 C 762.24 385.04, 763.30 384.94, 764.66 384.34 C 766.02 383.75, 766.92 382.97, 767.64 381.45 C 768.37 379.93, 768.48 378.79, 768.29 376.75 C 768.10 374.72, 767.38 373.44, 766.69 371.26 C 766.00 369.08, 765.41 367.79, 764.84 365.85 C 764.28 363.91, 763.99 362.94, 763.86 361.55 C 763.74 360.16, 763.73 359.71, 764.20 358.91 C 764.68 358.11, 765.01 357.98, 766.23 357.55 C 767.44 357.12, 768.25 357.10, 770.27 356.77 C 772.28 356.43, 773.60 356.30, 776.30 355.87 C 778.99 355.44, 780.61 355.03, 783.74 354.60 C 786.87 354.17, 788.67 354.00, 791.94 353.72 C 795.20 353.43, 796.95 353.46, 800.06 353.17 C 803.17 352.88, 805.03 352.87, 807.48 352.28 C 809.93 351.69, 810.81 351.11, 812.31 350.23 C 813.82 349.36, 814.58 348.89, 815.01 347.91 C 815.44 346.94, 815.22 346.09, 814.47 345.36 C 813.72 344.64, 812.90 344.62, 811.27 344.29 C 809.64 343.97, 808.74 343.67, 806.31 343.75 C 803.89 343.84, 802.16 344.33, 799.14 344.70 C 796.13 345.08, 794.49 345.35, 791.25 345.62 C 788.02 345.88, 786.22 345.89, 782.97 346.03 C 779.72 346.16, 778.02 345.97, 775.00 346.31 C 771.98 346.65, 770.43 346.85, 767.85 347.74 C 765.28 348.63, 764.08 349.28, 762.14 350.76 C 760.19 352.23, 759.40 353.14, 758.13 355.10 C 756.87 357.06, 756.41 358.19, 755.82 360.56 C 755.23 362.94, 755.22 364.34, 755.18 366.96 C 755.14 369.58, 755.28 371.12, 755.62 373.67 C 755.95 376.21, 756.03 377.74, 756.87 379.70 C 757.71 381.66, 758.47 382.60, 759.81 383.46 C 761.15 384.33, 762.29 384.30, 763.56 384.02 C 764.83 383.75, 765.50 383.21, 766.14 382.10 C 766.79 380.99, 766.75 380.23, 766.78 378.48 C 766.81 376.73, 766.67 375.49, 766.30 373.34 C 765.94 371.20, 765.62 369.72, 764.95 367.76 C 764.29 365.80, 763.89 364.88, 762.99 363.54 C 762.09 362.20, 761.68 361.48, 760.46 361.05 C 759.24 360.63, 757.99 360.72, 756.88 361.42" style="stroke: black; fill: black;"/><path d="M 826.76,317.67 C 825.75 318.50, 825.28 319.25, 825.01 321.41 C 824.74 323.57, 824.83 325.07, 825.42 328.46 C 826.01 331.85, 826.90 334.15, 827.96 338.36 C 829.02 342.56, 829.62 345.11, 830.71 349.50 C 831.79 353.90, 832.35 356.24, 833.39 360.33 C 834.43 364.43, 835.02 366.43, 835.91 369.97 C 836.80 373.51, 837.05 375.22, 837.84 378.04 C 838.64 380.86, 839.03 382.11, 839.89 384.06 C 840.74 386.00, 841.27 386.68, 842.10 387.75 C 842.93 388.82, 843.22 389.16, 844.04 389.41 C 844.87 389.66, 845.56 389.60, 846.23 389.00 C 846.90 388.41, 847.19 387.87, 847.38 386.42 C 847.58 384.97, 847.63 383.92, 847.20 381.77 C 846.78 379.61, 846.24 378.39, 845.24 375.66 C 844.25 372.92, 843.42 371.45, 842.24 368.07 C 841.05 364.70, 840.39 362.76, 839.31 358.78 C 838.23 354.79, 837.70 352.50, 836.85 348.15 C 836.00 343.79, 835.61 341.22, 835.06 337.00 C 834.50 332.78, 834.57 330.39, 834.08 327.07 C 833.60 323.75, 833.43 322.37, 832.62 320.41 C 831.82 318.45, 831.22 317.83, 830.05 317.28 C 828.88 316.73, 827.76 316.85, 826.76 317.67" style="stroke: black; fill: black;"/><path d="M 816.49,369.46 C 817.37 370.29, 817.94 370.42, 819.80 370.52 C 821.67 370.62, 822.78 370.52, 825.82 369.97 C 828.85 369.43, 830.82 368.53, 834.99 367.80 C 839.17 367.06, 841.86 366.80, 846.70 366.29 C 851.54 365.79, 854.30 365.60, 859.19 365.27 C 864.08 364.93, 866.63 364.80, 871.17 364.63 C 875.70 364.46, 877.98 364.38, 881.86 364.42 C 885.75 364.45, 887.61 364.83, 890.59 364.80 C 893.58 364.78, 894.86 364.80, 896.79 364.29 C 898.71 363.78, 899.45 363.39, 900.23 362.24 C 901.01 361.08, 901.12 359.98, 900.67 358.50 C 900.22 357.02, 899.58 355.81, 898.00 354.84 C 896.41 353.87, 895.12 353.58, 892.75 353.64 C 890.38 353.70, 888.84 354.22, 886.14 355.14 C 883.45 356.07, 881.82 356.66, 879.28 358.26 C 876.74 359.86, 875.32 360.90, 873.42 363.14 C 871.53 365.38, 870.60 366.82, 869.82 369.46 C 869.03 372.10, 868.96 373.76, 869.49 376.34 C 870.03 378.92, 870.78 380.35, 872.52 382.36 C 874.26 384.37, 875.64 385.28, 878.19 386.41 C 880.75 387.54, 882.36 387.81, 885.29 388.00 C 888.21 388.19, 889.88 388.00, 892.82 387.36 C 895.76 386.73, 897.31 386.13, 899.97 384.82 C 902.63 383.51, 904.07 382.58, 906.13 380.82 C 908.19 379.06, 909.31 377.72, 910.28 376.01 C 911.24 374.30, 911.15 373.09, 910.95 372.25 C 910.76 371.42, 909.82 371.25, 909.30 371.83 C 908.78 372.42, 908.15 373.41, 908.37 375.18 C 908.58 376.95, 908.98 378.54, 910.38 380.67 C 911.78 382.81, 913.12 384.05, 915.36 385.85 C 917.60 387.65, 918.97 388.50, 921.56 389.66 C 924.16 390.82, 925.60 391.25, 928.32 391.64 C 931.05 392.02, 932.47 392.02, 935.19 391.60 C 937.91 391.18, 939.32 390.79, 941.92 389.53 C 944.51 388.27, 945.93 387.48, 948.18 385.31 C 950.43 383.14, 951.46 381.68, 953.17 378.68 C 954.88 375.68, 955.55 373.84, 956.72 370.31 C 957.89 366.78, 958.37 364.79, 959.03 361.03 C 959.68 357.27, 959.90 355.16, 960.01 351.50 C 960.13 347.85, 960.27 345.88, 959.62 342.75 C 958.97 339.62, 958.28 338.08, 956.75 335.86 C 955.22 333.64, 954.20 332.50, 951.96 331.64 C 949.73 330.79, 947.88 330.60, 945.57 331.57 C 943.26 332.53, 941.74 333.80, 940.42 336.46 C 939.10 339.13, 938.99 341.18, 938.97 344.90 C 938.96 348.63, 939.37 350.94, 940.35 355.10 C 941.33 359.26, 942.14 361.70, 943.88 365.69 C 945.61 369.68, 946.67 371.64, 949.01 375.04 C 951.35 378.43, 952.77 379.98, 955.59 382.65 C 958.41 385.32, 960.06 386.52, 963.13 388.40 C 966.20 390.28, 967.79 390.99, 970.95 392.05 C 974.12 393.11, 975.78 393.46, 978.95 393.70 C 982.12 393.93, 983.78 393.79, 986.81 393.23 C 989.84 392.66, 991.36 392.11, 994.09 390.86 C 996.81 389.62, 998.12 388.77, 1000.43 387.00 C 1002.74 385.24, 1003.86 384.12, 1005.64 382.03 C 1007.42 379.95, 1008.17 378.70, 1009.32 376.59 C 1010.46 374.48, 1010.96 373.41, 1011.36 371.50 C 1011.76 369.59, 1011.88 368.59, 1011.31 367.05 C 1010.74 365.51, 1010.02 364.57, 1008.50 363.81 C 1006.97 363.04, 1005.52 362.72, 1003.69 363.22 C 1001.87 363.73, 1000.58 364.54, 999.39 366.33 C 998.20 368.12, 997.86 369.68, 997.74 372.18 C 997.62 374.67, 997.86 376.26, 998.79 378.80 C 999.72 381.34, 1000.48 382.77, 1002.40 384.88 C 1004.33 386.99, 1005.65 388.00, 1008.41 389.35 C 1011.16 390.70, 1012.90 391.15, 1016.19 391.63 C 1019.47 392.11, 1021.40 392.00, 1024.83 391.74 C 1028.26 391.48, 1030.12 391.21, 1033.35 390.34 C 1036.57 389.47, 1038.29 388.94, 1040.95 387.39 C 1043.61 385.83, 1044.92 384.79, 1046.66 382.57 C 1048.40 380.34, 1049.19 378.93, 1049.64 376.25 C 1050.09 373.57, 1049.98 371.84, 1048.93 369.16 C 1047.88 366.49, 1046.86 364.90, 1044.39 362.88 C 1041.92 360.85, 1040.02 360.07, 1036.58 359.04 C 1033.14 358.01, 1030.98 357.87, 1027.17 357.72 C 1023.37 357.58, 1021.21 357.71, 1017.56 358.30 C 1013.91 358.89, 1011.69 359.27, 1008.94 360.67 C 1006.19 362.07, 1005.16 363.49, 1003.80 365.29 C 1002.44 367.10, 1002.28 368.25, 1002.14 369.68 C 1002.00 371.11, 1002.45 371.88, 1003.10 372.46 C 1003.76 373.03, 1004.73 372.72, 1005.41 372.54 C 1006.09 372.36, 1005.86 371.97, 1006.51 371.56 C 1007.17 371.15, 1007.46 371.10, 1008.67 370.49 C 1009.88 369.88, 1010.51 369.34, 1012.57 368.52 C 1014.62 367.70, 1016.12 366.91, 1018.95 366.38 C 1021.79 365.85, 1023.74 365.65, 1026.73 365.88 C 1029.72 366.10, 1031.43 366.64, 1033.89 367.49 C 1036.34 368.34, 1037.38 369.10, 1038.99 370.12 C 1040.60 371.13, 1041.19 371.60, 1041.92 372.58 C 1042.65 373.55, 1042.83 374.03, 1042.63 374.99 C 1042.43 375.95, 1042.07 376.42, 1040.92 377.38 C 1039.78 378.34, 1038.86 378.88, 1036.90 379.79 C 1034.94 380.70, 1033.65 381.28, 1031.14 381.91 C 1028.62 382.54, 1027.04 382.87, 1024.33 382.96 C 1021.62 383.05, 1020.03 382.76, 1017.60 382.37 C 1015.16 381.98, 1013.91 381.68, 1012.14 381.00 C 1010.36 380.33, 1009.64 379.93, 1008.72 378.99 C 1007.79 378.04, 1007.63 377.39, 1007.51 376.28 C 1007.38 375.17, 1007.79 374.53, 1008.11 373.44 C 1008.43 372.36, 1009.00 371.82, 1009.09 370.86 C 1009.18 369.90, 1009.01 369.40, 1008.58 368.66 C 1008.15 367.91, 1007.59 367.49, 1006.93 367.13 C 1006.28 366.77, 1005.93 366.56, 1005.30 366.87 C 1004.68 367.18, 1004.51 367.63, 1003.80 368.68 C 1003.10 369.73, 1002.76 370.63, 1001.77 372.14 C 1000.78 373.66, 1000.20 374.66, 998.85 376.25 C 997.50 377.85, 996.70 378.74, 995.01 380.11 C 993.33 381.48, 992.40 382.14, 990.43 383.10 C 988.47 384.07, 987.39 384.47, 985.18 384.93 C 982.97 385.39, 981.79 385.47, 979.39 385.41 C 976.99 385.34, 975.72 385.26, 973.19 384.61 C 970.65 383.96, 969.33 383.53, 966.71 382.15 C 964.10 380.77, 962.58 379.86, 960.10 377.70 C 957.63 375.54, 956.35 374.26, 954.34 371.35 C 952.33 368.45, 951.39 366.69, 950.06 363.17 C 948.72 359.64, 948.12 357.34, 947.66 353.75 C 947.21 350.16, 947.58 348.11, 947.80 345.22 C 948.03 342.33, 948.61 341.02, 948.78 339.29 C 948.95 337.56, 948.59 337.05, 948.64 336.58 C 948.68 336.10, 948.71 336.34, 949.01 336.91 C 949.31 337.47, 949.66 337.91, 950.12 339.41 C 950.58 340.90, 950.86 341.98, 951.31 344.39 C 951.75 346.80, 952.27 348.38, 952.34 351.44 C 952.40 354.51, 952.23 356.46, 951.63 359.71 C 951.04 362.95, 950.50 364.75, 949.35 367.66 C 948.20 370.57, 947.35 372.02, 945.88 374.27 C 944.41 376.52, 943.57 377.40, 942.00 378.92 C 940.44 380.43, 939.70 380.97, 938.07 381.83 C 936.44 382.68, 935.55 382.92, 933.85 383.19 C 932.16 383.47, 931.26 383.51, 929.60 383.23 C 927.94 382.95, 927.01 382.68, 925.54 381.79 C 924.07 380.90, 923.40 380.24, 922.26 378.76 C 921.13 377.28, 920.99 376.06, 919.87 374.39 C 918.75 372.71, 918.18 371.66, 916.66 370.40 C 915.13 369.15, 914.10 368.60, 912.26 368.13 C 910.43 367.66, 909.22 367.61, 907.48 368.06 C 905.73 368.51, 904.97 369.21, 903.53 370.38 C 902.09 371.55, 901.78 372.66, 900.29 373.90 C 898.79 375.15, 897.93 375.75, 896.06 376.60 C 894.19 377.45, 893.01 377.77, 890.94 378.15 C 888.87 378.54, 887.66 378.57, 885.72 378.53 C 883.79 378.50, 882.80 378.34, 881.29 377.98 C 879.78 377.61, 879.06 377.34, 878.17 376.72 C 877.27 376.09, 876.98 375.75, 876.82 374.86 C 876.66 373.98, 876.76 373.39, 877.38 372.29 C 877.99 371.19, 878.57 370.47, 879.89 369.37 C 881.22 368.27, 882.20 367.59, 884.01 366.78 C 885.81 365.96, 887.00 365.63, 888.92 365.29 C 890.85 364.94, 891.96 365.32, 893.62 365.07 C 895.28 364.83, 896.07 364.81, 897.23 364.07 C 898.38 363.32, 898.98 362.45, 899.40 361.35 C 899.82 360.26, 899.95 359.42, 899.34 358.60 C 898.73 357.78, 898.14 357.53, 896.34 357.26 C 894.53 356.98, 893.25 357.02, 890.31 357.22 C 887.36 357.42, 885.48 357.87, 881.59 358.25 C 877.71 358.62, 875.42 358.78, 870.87 359.10 C 866.33 359.41, 863.78 359.57, 858.86 359.83 C 853.94 360.09, 851.20 360.23, 846.28 360.41 C 841.37 360.59, 838.68 360.61, 834.29 360.73 C 829.90 360.85, 827.62 360.51, 824.33 361.01 C 821.05 361.51, 819.65 362.16, 817.86 363.24 C 816.07 364.32, 815.65 365.15, 815.38 366.40 C 815.10 367.64, 815.60 368.64, 816.49 369.46" style="stroke: black; fill: black;"/></svg>