<svg xmlns="http://www.w3.org/2000/svg" width="2400" height="7500" viewBox="0 0 2400 7500">
<rect width="2400" height="7500" fill="white"/>
<line x1="0" y1="0" x2="0" y2="7500" stroke="#000" stroke-width="2"/>
<line x1="300" y1="0" x2="300" y2="7500" stroke="#ccc" stroke-width="1"/>
<line x1="600" y1="0" x2="600" y2="7500" stroke="#ccc" stroke-width="1"/>
<line x1="900" y1="0" x2="900" y2="7500" stroke="#ccc" stroke-width="1"/>
<line x1="1200" y1="0" x2="1200" y2="7500" stroke="#ccc" stroke-width="1"/>
<line x1="1500" y1="0" x2="1500" y2="7500" stroke="#ccc" stroke-width="1"/>
<line x1="1800" y1="0" x2="1800" y2="7500" stroke="#ccc" stroke-width="1"/>
<line x1="2100" y1="0" x2="2100" y2="7500" stroke="#ccc" stroke-width="1"/>
<line x1="2400" y1="0" x2="2400" y2="7500" stroke="#000" stroke-width="2"/>
<line x1="0" y1="0" x2="2400" y2="0" stroke="#000" stroke-width="3"/>
<text x="10" y="24" font-family="monospace" font-size="20" fill="#999">Frame 1 — Idle</text>
<line x1="0" y1="300" x2="2400" y2="300" stroke="#ccc" stroke-width="1"/>
<line x1="0" y1="600" x2="2400" y2="600" stroke="#ccc" stroke-width="1"/>
<line x1="0" y1="900" x2="2400" y2="900" stroke="#ccc" stroke-width="1"/>
<line x1="0" y1="1200" x2="2400" y2="1200" stroke="#ccc" stroke-width="1"/>
<line x1="0" y1="1500" x2="2400" y2="1500" stroke="#ccc" stroke-width="1"/>
<line x1="0" y1="1800" x2="2400" y2="1800" stroke="#ccc" stroke-width="1"/>
<line x1="0" y1="2100" x2="2400" y2="2100" stroke="#ccc" stroke-width="1"/>
<line x1="0" y1="2400" x2="2400" y2="2400" stroke="#000" stroke-width="3"/>
<text x="10" y="2424" font-family="monospace" font-size="20" fill="#999">Frame 2 — Idle</text>
<line x1="0" y1="2700" x2="2400" y2="2700" stroke="#ccc" stroke-width="1"/>
<line x1="0" y1="3000" x2="2400" y2="3000" stroke="#ccc" stroke-width="1"/>
<line x1="0" y1="3300" x2="2400" y2="3300" stroke="#ccc" stroke-width="1"/>
<line x1="0" y1="3600" x2="2400" y2="3600" stroke="#ccc" stroke-width="1"/>
<line x1="0" y1="3900" x2="2400" y2="3900" stroke="#ccc" stroke-width="1"/>
<line x1="0" y1="4200" x2="2400" y2="4200" stroke="#ccc" stroke-width="1"/>
<line x1="0" y1="4500" x2="2400" y2="4500" stroke="#ccc" stroke-width="1"/>
<line x1="0" y1="4800" x2="2400" y2="4800" stroke="#000" stroke-width="3"/>
<text x="10" y="4824" font-family="monospace" font-size="20" fill="#999">Frame 3 — Idle</text>
<line x1="0" y1="5100" x2="2400" y2="5100" stroke="#ccc" stroke-width="1"/>
<line x1="0" y1="5400" x2="2400" y2="5400" stroke="#ccc" stroke-width="1"/>
<line x1="0" y1="5700" x2="2400" y2="5700" stroke="#ccc" stroke-width="1"/>
<line x1="0" y1="6000" x2="2400" y2="6000" stroke="#ccc" stroke-width="1"/>
<line x1="0" y1="6300" x2="2400" y2="6300" stroke="#ccc" stroke-width="1"/>
<line x1="0" y1="6600" x2="2400" y2="6600" stroke="#ccc" stroke-width="1"/>
<line x1="0" y1="6900" x2="2400" y2="6900" stroke="#ccc" stroke-width="1"/>
<line x1="0" y1="7200" x2="2400" y2="7200" stroke="#000" stroke-width="3"/>
<text x="10" y="7224" font-family="monospace" font-size="20" fill="#999">Animación (parpadeo + extra)</text>
<line x1="0" y1="7500" x2="2400" y2="7500" stroke="#000" stroke-width="3"/>
</svg>